<svg width="1920" height="299" viewBox="0 0 1920 299" fill="none" xmlns="http://www.w3.org/2000/svg">
<path fill-rule="evenodd" clip-rule="evenodd" d="M1920 7.7486e-06L1840 16.6111C1760 33.2222 1600 66.4445 1440 77.5185C1280 88.5926 1120 77.5185 960 55.3704C800 33.2222 640 2.17112e-06 480 5.53704C320 11.0741 160 55.3704 80 77.5185L0 99.6667V299H80C160 299 320 299 480 299C640 299 800 299 960 299C1120 299 1280 299 1440 299C1600 299 1760 299 1840 299H1920V7.7486e-06Z" fill="white" fill-opacity="0.7"/>
</svg>
